<svg width="110" height="166" viewBox="0 0 110 166" fill="none" xmlns="http://www.w3.org/2000/svg">
<path fill-rule="evenodd" clip-rule="evenodd" d="M54 13H55H77H78V14V42V43H77H56V48H71V64H56V76H71V92H56V104H71V120H56V134.5H54V120H39V104H54V92H39V76H54V64H39V48H54V42V36H39V20H54V14V13ZM56 41V36H71V20H56V15H76V41H56ZM52.0742 26.1641V24.8379C52.6895 24.8105 53.1201 24.7695 53.3662 24.7148C53.7581 24.6283 54.0771 24.4551 54.3232 24.1953C54.4919 24.0176 54.6195 23.7806 54.7061 23.4844C54.7562 23.3066 54.7812 23.1745 54.7812 23.0879H56.4014V33H54.4053V26.1641H52.0742ZM53.5781 86.9424C53.4505 86.6826 53.3867 86.3545 53.3867 85.958H51.4727C51.5046 86.7464 51.6641 87.3844 51.9512 87.8721C52.498 88.7881 53.4733 89.2461 54.877 89.2461C56.0163 89.2461 56.8753 88.9294 57.4541 88.2959C58.0374 87.6579 58.3291 86.9196 58.3291 86.0811C58.3291 85.2835 58.0807 84.6546 57.584 84.1943C57.2513 83.889 56.9961 83.7363 56.8184 83.7363C57.0553 83.6452 57.2832 83.4743 57.502 83.2236C57.8483 82.8226 58.0215 82.3304 58.0215 81.7471C58.0215 80.9222 57.7298 80.266 57.1465 79.7783C56.5677 79.2861 55.8044 79.04 54.8564 79.04C54.346 79.04 53.9154 79.1016 53.5645 79.2246C53.2135 79.3477 52.9105 79.5254 52.6553 79.7578C52.3135 80.0859 52.0628 80.4437 51.9033 80.8311C51.7529 81.2731 51.6686 81.7402 51.6504 82.2324H53.4688C53.4596 81.7448 53.5622 81.3551 53.7764 81.0635C53.9951 80.7718 54.3346 80.626 54.7949 80.626C55.196 80.626 55.5059 80.7445 55.7246 80.9814C55.9479 81.2184 56.0596 81.526 56.0596 81.9043C56.0596 82.4876 55.8431 82.875 55.4102 83.0664C55.1595 83.1803 54.7174 83.2419 54.084 83.251V84.6455C54.7311 84.6455 55.2051 84.707 55.5059 84.8301C56.0345 85.0488 56.2988 85.484 56.2988 86.1357C56.2988 86.6279 56.1553 87.0062 55.8682 87.2705C55.5856 87.5303 55.2529 87.6602 54.8701 87.6602C54.2458 87.6602 53.8151 87.4209 53.5781 86.9424ZM51.541 61C51.5592 60.2891 51.7119 59.6396 51.999 59.0518C52.277 58.3909 52.9333 57.6914 53.9678 56.9531C54.8656 56.3105 55.4466 55.8503 55.7109 55.5723C56.1165 55.1393 56.3193 54.6654 56.3193 54.1504C56.3193 53.7311 56.2031 53.3825 55.9707 53.1045C55.7383 52.8265 55.4056 52.6875 54.9727 52.6875C54.3802 52.6875 53.9769 52.9085 53.7627 53.3506C53.6396 53.6058 53.5667 54.0114 53.5439 54.5674H51.6504C51.6823 53.7243 51.835 53.043 52.1084 52.5234C52.6279 51.5345 53.5508 51.04 54.877 51.04C55.9251 51.04 56.7591 51.3317 57.3789 51.915C57.9987 52.4938 58.3086 53.2617 58.3086 54.2188C58.3086 54.9525 58.0898 55.6042 57.6523 56.1738C57.3652 56.5521 56.8936 56.9736 56.2373 57.4385L55.458 57.9922C54.9704 58.3385 54.6354 58.5892 54.4531 58.7441C54.2754 58.8991 54.125 59.0791 54.002 59.2842H58.3291V61H51.541ZM57.3037 114.867H58.4248V113.343H57.3037V107.149H55.1162L51.4727 113.165V114.867H55.3965V117H57.3037V114.867ZM55.3965 109.063V113.343H52.915L55.3965 109.063Z" fill="white"/>
<path d="M52.0742 149.164V147.838C52.6895 147.811 53.1201 147.77 53.3662 147.715C53.7581 147.628 54.0771 147.455 54.3232 147.195C54.4919 147.018 54.6195 146.781 54.7061 146.484C54.7562 146.307 54.7812 146.174 54.7812 146.088H56.4014V156H54.4053V149.164H52.0742Z" fill="white"/>
</svg>
