<svg width="141" height="166" viewBox="0 0 141 166" fill="none" xmlns="http://www.w3.org/2000/svg">
<path fill-rule="evenodd" clip-rule="evenodd" d="M90 41H89V42V48H74V64H89V70V76H75.4142L62 62.5858V48H30V64H60.5858L74 77.4142V92H89V104H74V120H89V135H91V120H106V104H91V92H106V76H91V71H112H113V70V42V41H112H90ZM106 64H91V69H111V43H91V48H106V64ZM87.0742 110.164V108.838C87.6895 108.811 88.1201 108.77 88.3662 108.715C88.7581 108.628 89.0771 108.455 89.3232 108.195C89.4919 108.018 89.6195 107.781 89.7061 107.484C89.7562 107.307 89.7812 107.174 89.7812 107.088H91.4014V117H89.4053V110.164H87.0742ZM86.999 87.0518C86.7119 87.6396 86.5592 88.2891 86.541 89H93.3291V87.2842H89.002C89.125 87.0791 89.2754 86.8991 89.4531 86.7441C89.6354 86.5892 89.9704 86.3385 90.458 85.9922L91.2373 85.4385C91.8936 84.9736 92.3652 84.5521 92.6523 84.1738C93.0898 83.6042 93.3086 82.9525 93.3086 82.2188C93.3086 81.2617 92.9987 80.4938 92.3789 79.915C91.7591 79.3317 90.9251 79.04 89.877 79.04C88.5508 79.04 87.6279 79.5345 87.1084 80.5234C86.835 81.043 86.6823 81.7243 86.6504 82.5674H88.5439C88.5667 82.0114 88.6396 81.6058 88.7627 81.3506C88.9769 80.9085 89.3802 80.6875 89.9727 80.6875C90.4056 80.6875 90.7383 80.8265 90.9707 81.1045C91.2031 81.3825 91.3193 81.7311 91.3193 82.1504C91.3193 82.6654 91.1165 83.1393 90.7109 83.5723C90.4466 83.8503 89.8656 84.3105 88.9678 84.9531C87.9333 85.6914 87.277 86.3909 86.999 87.0518ZM93.4248 58.8672H92.3037V61H90.3965V58.8672H86.4727V57.165L90.1162 51.1494H92.3037V57.3428H93.4248V58.8672ZM90.3965 57.3428V53.0635L87.915 57.3428H90.3965ZM44.5781 58.9424C44.4505 58.6826 44.3867 58.3545 44.3867 57.958H42.4727C42.5046 58.7464 42.6641 59.3844 42.9512 59.8721C43.498 60.7881 44.4733 61.2461 45.877 61.2461C47.0163 61.2461 47.8753 60.9294 48.4541 60.2959C49.0374 59.6579 49.3291 58.9196 49.3291 58.0811C49.3291 57.2835 49.0807 56.6546 48.584 56.1943C48.2513 55.889 47.9961 55.7363 47.8184 55.7363C48.0553 55.6452 48.2832 55.4743 48.502 55.2236C48.8483 54.8226 49.0215 54.3304 49.0215 53.7471C49.0215 52.9222 48.7298 52.266 48.1465 51.7783C47.5677 51.2861 46.8044 51.04 45.8564 51.04C45.346 51.04 44.9154 51.1016 44.5645 51.2246C44.2135 51.3477 43.9105 51.5254 43.6553 51.7578C43.3135 52.0859 43.0628 52.4437 42.9033 52.8311C42.7529 53.2731 42.6686 53.7402 42.6504 54.2324H44.4688C44.4596 53.7448 44.5622 53.3551 44.7764 53.0635C44.9951 52.7718 45.3346 52.626 45.7949 52.626C46.196 52.626 46.5059 52.7445 46.7246 52.9814C46.9479 53.2184 47.0596 53.526 47.0596 53.9043C47.0596 54.4876 46.8431 54.875 46.4102 55.0664C46.1595 55.1803 45.7174 55.2419 45.084 55.251V56.6455C45.7311 56.6455 46.2051 56.707 46.5059 56.8301C47.0345 57.0488 47.2988 57.484 47.2988 58.1357C47.2988 58.6279 47.1553 59.0062 46.8682 59.2705C46.5856 59.5303 46.2529 59.6602 45.8701 59.6602C45.2458 59.6602 44.8151 59.4209 44.5781 58.9424Z" fill="white"/>
<path d="M86.541 156C86.5592 155.289 86.7119 154.64 86.999 154.052C87.277 153.391 87.9333 152.691 88.9678 151.953C89.8656 151.311 90.4466 150.85 90.7109 150.572C91.1165 150.139 91.3193 149.665 91.3193 149.15C91.3193 148.731 91.2031 148.382 90.9707 148.104C90.7383 147.826 90.4056 147.688 89.9727 147.688C89.3802 147.688 88.9769 147.909 88.7627 148.351C88.6396 148.606 88.5667 149.011 88.5439 149.567H86.6504C86.6823 148.724 86.835 148.043 87.1084 147.523C87.6279 146.535 88.5508 146.04 89.877 146.04C90.9251 146.04 91.7591 146.332 92.3789 146.915C92.9987 147.494 93.3086 148.262 93.3086 149.219C93.3086 149.952 93.0898 150.604 92.6523 151.174C92.3652 151.552 91.8936 151.974 91.2373 152.438L90.458 152.992C89.9704 153.339 89.6354 153.589 89.4531 153.744C89.2754 153.899 89.125 154.079 89.002 154.284H93.3291V156H86.541Z" fill="white"/>
</svg>
