<svg width="153" height="166" viewBox="0 0 153 166" fill="none" xmlns="http://www.w3.org/2000/svg">
<path fill-rule="evenodd" clip-rule="evenodd" d="M115 48H83V64H98V76H83V90.5858L69.5858 104H56V98V92H71V76H56V70V69H55H33H32V70V98V99H33H54V104H39V120H54V135H56V120H71V105.414L84.4142 92H115V76H100V64H115V48ZM54 71V76H39V92H54V97H34V71H54ZM52.0742 110.164V108.838C52.6895 108.811 53.1201 108.77 53.3662 108.715C53.7581 108.628 54.0771 108.455 54.3232 108.195C54.4919 108.018 54.6195 107.781 54.7061 107.484C54.7562 107.307 54.7812 107.174 54.7812 107.088H56.4014V117H54.4053V110.164H52.0742ZM57.3037 86.8672H58.4248V85.3428H57.3037V79.1494H55.1162L51.4727 85.165V86.8672H55.3965V89H57.3037V86.8672ZM55.3965 81.0635V85.3428H52.915L55.3965 81.0635ZM95.541 89C95.5592 88.2891 95.7119 87.6396 95.999 87.0518C96.277 86.3909 96.9333 85.6914 97.9678 84.9531C98.8656 84.3105 99.4466 83.8503 99.7109 83.5723C100.117 83.1393 100.319 82.6654 100.319 82.1504C100.319 81.7311 100.203 81.3825 99.9707 81.1045C99.7383 80.8265 99.4056 80.6875 98.9727 80.6875C98.3802 80.6875 97.9769 80.9085 97.7627 81.3506C97.6396 81.6058 97.5667 82.0114 97.5439 82.5674H95.6504C95.6823 81.7243 95.835 81.043 96.1084 80.5234C96.6279 79.5345 97.5508 79.04 98.877 79.04C99.9251 79.04 100.759 79.3317 101.379 79.915C101.999 80.4938 102.309 81.2617 102.309 82.2188C102.309 82.9525 102.09 83.6042 101.652 84.1738C101.365 84.5521 100.894 84.9736 100.237 85.4385L99.458 85.9922C98.9704 86.3385 98.6354 86.5892 98.4531 86.7441C98.2754 86.8991 98.125 87.0791 98.002 87.2842H102.329V89H95.541ZM97.5781 58.9424C97.4505 58.6826 97.3867 58.3545 97.3867 57.958H95.4727C95.5046 58.7464 95.6641 59.3844 95.9512 59.8721C96.498 60.7881 97.4733 61.2461 98.877 61.2461C100.016 61.2461 100.875 60.9294 101.454 60.2959C102.037 59.6579 102.329 58.9196 102.329 58.0811C102.329 57.2835 102.081 56.6546 101.584 56.1943C101.251 55.889 100.996 55.7363 100.818 55.7363C101.055 55.6452 101.283 55.4743 101.502 55.2236C101.848 54.8226 102.021 54.3304 102.021 53.7471C102.021 52.9222 101.73 52.266 101.146 51.7783C100.568 51.2861 99.8044 51.04 98.8564 51.04C98.346 51.04 97.9154 51.1016 97.5645 51.2246C97.2135 51.3477 96.9105 51.5254 96.6553 51.7578C96.3135 52.0859 96.0628 52.4437 95.9033 52.8311C95.7529 53.2731 95.6686 53.7402 95.6504 54.2324H97.4688C97.4596 53.7448 97.5622 53.3551 97.7764 53.0635C97.9951 52.7718 98.3346 52.626 98.7949 52.626C99.196 52.626 99.5059 52.7445 99.7246 52.9814C99.9479 53.2184 100.06 53.526 100.06 53.9043C100.06 54.4876 99.8431 54.875 99.4102 55.0664C99.1595 55.1803 98.7174 55.2419 98.084 55.251V56.6455C98.7311 56.6455 99.2051 56.707 99.5059 56.8301C100.035 57.0488 100.299 57.484 100.299 58.1357C100.299 58.6279 100.155 59.0062 99.8682 59.2705C99.5856 59.5303 99.2529 59.6602 98.8701 59.6602C98.2458 59.6602 97.8151 59.4209 97.5781 58.9424Z" fill="white"/>
<path d="M53.3867 152.958C53.3867 153.354 53.4505 153.683 53.5781 153.942C53.8151 154.421 54.2458 154.66 54.8701 154.66C55.2529 154.66 55.5856 154.53 55.8682 154.271C56.1553 154.006 56.2988 153.628 56.2988 153.136C56.2988 152.484 56.0345 152.049 55.5059 151.83C55.2051 151.707 54.7311 151.646 54.084 151.646V150.251C54.7174 150.242 55.1595 150.18 55.4102 150.066C55.8431 149.875 56.0596 149.488 56.0596 148.904C56.0596 148.526 55.9479 148.218 55.7246 147.981C55.5059 147.744 55.196 147.626 54.7949 147.626C54.3346 147.626 53.9951 147.772 53.7764 148.063C53.5622 148.355 53.4596 148.745 53.4688 149.232H51.6504C51.6686 148.74 51.7529 148.273 51.9033 147.831C52.0628 147.444 52.3135 147.086 52.6553 146.758C52.9105 146.525 53.2135 146.348 53.5645 146.225C53.9154 146.102 54.346 146.04 54.8564 146.04C55.8044 146.04 56.5677 146.286 57.1465 146.778C57.7298 147.266 58.0215 147.922 58.0215 148.747C58.0215 149.33 57.8483 149.823 57.502 150.224C57.2832 150.474 57.0553 150.645 56.8184 150.736C56.9961 150.736 57.2513 150.889 57.584 151.194C58.0807 151.655 58.3291 152.284 58.3291 153.081C58.3291 153.92 58.0374 154.658 57.4541 155.296C56.8753 155.929 56.0163 156.246 54.877 156.246C53.4733 156.246 52.498 155.788 51.9512 154.872C51.6641 154.384 51.5046 153.746 51.4727 152.958H53.3867Z" fill="white"/>
</svg>
