<svg width="197" height="166" viewBox="0 0 197 166" fill="none" xmlns="http://www.w3.org/2000/svg">
<path fill-rule="evenodd" clip-rule="evenodd" d="M117 41H118H140H141V42V70V71H140H119V76H134V92H103.414L90 105.414V120H75V135H73V120H58V104H73V92H58V76H90V92H75V104H88.5858L102 90.5858V76H117V64H102V48H117V42V41ZM119 64V69H139V43H119V48H134V64H119ZM71.0742 110.164V108.838C71.6895 108.811 72.1201 108.77 72.3662 108.715C72.7581 108.628 73.0771 108.455 73.3232 108.195C73.4919 108.018 73.6195 107.781 73.7061 107.484C73.7562 107.307 73.7812 107.174 73.7812 107.088H75.4014V117H73.4053V110.164H71.0742ZM76.3037 86.8672H77.4248V85.3428H76.3037V79.1494H74.1162L70.4727 85.165V86.8672H74.3965V89H76.3037V86.8672ZM74.3965 81.0635V85.3428H71.915L74.3965 81.0635ZM114.541 89C114.559 88.2891 114.712 87.6396 114.999 87.0518C115.277 86.3909 115.933 85.6914 116.968 84.9531C117.866 84.3105 118.447 83.8503 118.711 83.5723C119.117 83.1393 119.319 82.6654 119.319 82.1504C119.319 81.7311 119.203 81.3825 118.971 81.1045C118.738 80.8265 118.406 80.6875 117.973 80.6875C117.38 80.6875 116.977 80.9085 116.763 81.3506C116.64 81.6058 116.567 82.0114 116.544 82.5674H114.65C114.682 81.7243 114.835 81.043 115.108 80.5234C115.628 79.5345 116.551 79.04 117.877 79.04C118.925 79.04 119.759 79.3317 120.379 79.915C120.999 80.4938 121.309 81.2617 121.309 82.2188C121.309 82.9525 121.09 83.6042 120.652 84.1738C120.365 84.5521 119.894 84.9736 119.237 85.4385L118.458 85.9922C117.97 86.3385 117.635 86.5892 117.453 86.7441C117.275 86.8991 117.125 87.0791 117.002 87.2842H121.329V89H114.541ZM116.578 58.9424C116.451 58.6826 116.387 58.3545 116.387 57.958H114.473C114.505 58.7464 114.664 59.3844 114.951 59.8721C115.498 60.7881 116.473 61.2461 117.877 61.2461C119.016 61.2461 119.875 60.9294 120.454 60.2959C121.037 59.6579 121.329 58.9196 121.329 58.0811C121.329 57.2835 121.081 56.6546 120.584 56.1943C120.251 55.889 119.996 55.7363 119.818 55.7363C120.055 55.6452 120.283 55.4743 120.502 55.2236C120.848 54.8226 121.021 54.3304 121.021 53.7471C121.021 52.9222 120.73 52.266 120.146 51.7783C119.568 51.2861 118.804 51.04 117.856 51.04C117.346 51.04 116.915 51.1016 116.564 51.2246C116.214 51.3477 115.91 51.5254 115.655 51.7578C115.313 52.0859 115.063 52.4437 114.903 52.8311C114.753 53.2731 114.669 53.7402 114.65 54.2324H116.469C116.46 53.7448 116.562 53.3551 116.776 53.0635C116.995 52.7718 117.335 52.626 117.795 52.626C118.196 52.626 118.506 52.7445 118.725 52.9814C118.948 53.2184 119.06 53.526 119.06 53.9043C119.06 54.4876 118.843 54.875 118.41 55.0664C118.16 55.1803 117.717 55.2419 117.084 55.251V56.6455C117.731 56.6455 118.205 56.707 118.506 56.8301C119.035 57.0488 119.299 57.484 119.299 58.1357C119.299 58.6279 119.155 59.0062 118.868 59.2705C118.586 59.5303 118.253 59.6602 117.87 59.6602C117.246 59.6602 116.815 59.4209 116.578 58.9424Z" fill="white"/>
<path d="M76.4248 153.867H75.3037V156H73.3965V153.867H69.4727V152.165L73.1162 146.149H75.3037V152.343H76.4248V153.867ZM73.3965 152.343V148.063L70.915 152.343H73.3965Z" fill="white"/>
</svg>
