<svg width="110" height="104" viewBox="0 0 110 104" fill="none" xmlns="http://www.w3.org/2000/svg">
<path fill-rule="evenodd" clip-rule="evenodd" d="M78 8H77V9V15H62V31H77V37V43H62V59H77V72H35V59H50V43H35V31H50V15H18V31H33V43H18V59H33V73V74H34H78H79V73V59H94V43H79V38H100H101V37V9V8H100H78ZM79 31V36H99V10H79V15H94V31H79ZM30.541 28C30.5592 27.2891 30.7119 26.6396 30.999 26.0518C31.277 25.391 31.9333 24.6914 32.9678 23.9531C33.8656 23.3105 34.4466 22.8503 34.7109 22.5723C35.1165 22.1393 35.3193 21.6654 35.3193 21.1504C35.3193 20.7311 35.2031 20.3825 34.9707 20.1045C34.7383 19.8265 34.4056 19.6875 33.9727 19.6875C33.3802 19.6875 32.9769 19.9085 32.7627 20.3506C32.6396 20.6058 32.5667 21.0114 32.5439 21.5674H30.6504C30.6823 20.7243 30.835 20.043 31.1084 19.5234C31.6279 18.5345 32.5508 18.04 33.877 18.04C34.9251 18.04 35.7591 18.3317 36.3789 18.915C36.9987 19.4938 37.3086 20.2617 37.3086 21.2188C37.3086 21.9525 37.0898 22.6042 36.6523 23.1738C36.3652 23.5521 35.8936 23.9736 35.2373 24.4385L34.458 24.9922C33.9704 25.3385 33.6354 25.5892 33.4531 25.7441C33.2754 25.8991 33.125 26.0791 33.002 26.2842H37.3291V28H30.541ZM31.0742 47.8379V49.1641H33.4053V56H35.4014V46.0879H33.7812C33.7812 46.1745 33.7562 46.3066 33.7061 46.4844C33.6195 46.7806 33.4919 47.0176 33.3232 47.1953C33.0771 47.4551 32.7581 47.6283 32.3662 47.7148C32.1201 47.7695 31.6895 47.8105 31.0742 47.8379ZM76.3867 52.958C76.3867 53.3545 76.4505 53.6826 76.5781 53.9424C76.8151 54.4209 77.2458 54.6602 77.8701 54.6602C78.2529 54.6602 78.5856 54.5303 78.8682 54.2705C79.1553 54.0062 79.2988 53.6279 79.2988 53.1357C79.2988 52.4841 79.0345 52.0488 78.5059 51.8301C78.2051 51.707 77.7311 51.6455 77.084 51.6455V50.251C77.7174 50.2419 78.1595 50.1803 78.4102 50.0664C78.8431 49.875 79.0596 49.4876 79.0596 48.9043C79.0596 48.526 78.9479 48.2184 78.7246 47.9814C78.5059 47.7445 78.196 47.626 77.7949 47.626C77.3346 47.626 76.9951 47.7718 76.7764 48.0635C76.5622 48.3551 76.4596 48.7448 76.4688 49.2324H74.6504C74.6686 48.7402 74.7529 48.2731 74.9033 47.8311C75.0628 47.4437 75.3135 47.0859 75.6553 46.7578C75.9105 46.5254 76.2135 46.3477 76.5645 46.2246C76.9154 46.1016 77.346 46.04 77.8564 46.04C78.8044 46.04 79.5677 46.2861 80.1465 46.7783C80.7298 47.2659 81.0215 47.9222 81.0215 48.7471C81.0215 49.3304 80.8483 49.8226 80.502 50.2236C80.2832 50.4743 80.0553 50.6452 79.8184 50.7363C79.9961 50.7363 80.2513 50.889 80.584 51.1943C81.0807 51.6546 81.3291 52.2835 81.3291 53.0811C81.3291 53.9196 81.0374 54.6579 80.4541 55.2959C79.8753 55.9294 79.0163 56.2461 77.877 56.2461C76.4733 56.2461 75.498 55.7881 74.9512 54.8721C74.6641 54.3844 74.5046 53.7464 74.4727 52.958H76.3867ZM80.3037 25.8672H81.4248V24.3428H80.3037V18.1494H78.1162L74.4727 24.165V25.8672H78.3965V28H80.3037V25.8672ZM78.3965 20.0635V24.3428H75.915L78.3965 20.0635Z" fill="white"/>
<path d="M54.4141 90.3477C54.4915 90.7715 54.6396 91.0996 54.8584 91.332C55.0771 91.5599 55.3962 91.6738 55.8154 91.6738C56.2985 91.6738 56.6654 91.5052 56.916 91.168C57.1712 90.8262 57.2988 90.3978 57.2988 89.8828C57.2988 89.377 57.1803 88.9508 56.9434 88.6045C56.7064 88.2536 56.3372 88.0781 55.8359 88.0781C55.599 88.0781 55.3939 88.1077 55.2207 88.167C54.9154 88.2764 54.6852 88.4792 54.5303 88.7754L52.7803 88.6934L53.4775 83.2178H58.9395V84.8721H54.8857L54.5303 87.0391C54.8311 86.8431 55.0658 86.7132 55.2344 86.6494C55.5169 86.5446 55.861 86.4922 56.2666 86.4922C57.0869 86.4922 57.8024 86.7679 58.4131 87.3193C59.0238 87.8708 59.3291 88.6729 59.3291 89.7256C59.3291 90.6416 59.0352 91.4596 58.4473 92.1797C57.8594 92.8997 56.9798 93.2598 55.8086 93.2598C54.8652 93.2598 54.0905 93.0068 53.4844 92.501C52.8783 91.9951 52.541 91.2773 52.4727 90.3477H54.4141Z" fill="white"/>
</svg>
