<svg width="141" height="104" viewBox="0 0 141 104" fill="none" xmlns="http://www.w3.org/2000/svg">
<path fill-rule="evenodd" clip-rule="evenodd" d="M68 8H69H91H92V9V36.5858L98.4142 43H129V59H114V73V74H113H25H24V73V59H9V43H39.5858L53 29.5858V15H68V9V8ZM54.4142 31L41 44.4142V59H26V72H68V59H53V43H68V31H54.4142ZM83.5858 31L97 44.4142V59H112V72H70V59H85V43H70V31H83.5858ZM85 15H70V10H90V34.5858L85 29.5858V15ZM65.541 56C65.5592 55.2891 65.7119 54.6396 65.999 54.0518C66.277 53.3909 66.9333 52.6914 67.9678 51.9531C68.8656 51.3105 69.4466 50.8503 69.7109 50.5723C70.1165 50.1393 70.3193 49.6654 70.3193 49.1504C70.3193 48.7311 70.2031 48.3825 69.9707 48.1045C69.7383 47.8265 69.4056 47.6875 68.9727 47.6875C68.3802 47.6875 67.9769 47.9085 67.7627 48.3506C67.6396 48.6058 67.5667 49.0114 67.5439 49.5674H65.6504C65.6823 48.7243 65.835 48.043 66.1084 47.5234C66.6279 46.5345 67.5508 46.04 68.877 46.04C69.9251 46.04 70.7591 46.3317 71.3789 46.915C71.9987 47.4938 72.3086 48.2617 72.3086 49.2188C72.3086 49.9525 72.0898 50.6042 71.6523 51.1738C71.3652 51.5521 70.8936 51.9736 70.2373 52.4385L69.458 52.9922C68.9704 53.3385 68.6354 53.5892 68.4531 53.7441C68.2754 53.8991 68.125 54.0791 68.002 54.2842H72.3291V56H65.541ZM22.0742 47.8379V49.1641H24.4053V56H26.4014V46.0879H24.7812C24.7812 46.1745 24.7562 46.3066 24.7061 46.4844C24.6195 46.7806 24.4919 47.0176 24.3232 47.1953C24.0771 47.4551 23.7581 47.6283 23.3662 47.7148C23.1201 47.7695 22.6895 47.8105 22.0742 47.8379ZM111.387 52.958C111.387 53.3545 111.451 53.6826 111.578 53.9424C111.815 54.4209 112.246 54.6602 112.87 54.6602C113.253 54.6602 113.586 54.5303 113.868 54.2705C114.155 54.0062 114.299 53.6279 114.299 53.1357C114.299 52.4841 114.035 52.0488 113.506 51.8301C113.205 51.707 112.731 51.6455 112.084 51.6455V50.251C112.717 50.2419 113.16 50.1803 113.41 50.0664C113.843 49.875 114.06 49.4876 114.06 48.9043C114.06 48.526 113.948 48.2184 113.725 47.9814C113.506 47.7445 113.196 47.626 112.795 47.626C112.335 47.626 111.995 47.7718 111.776 48.0635C111.562 48.3551 111.46 48.7448 111.469 49.2324H109.65C109.669 48.7402 109.753 48.2731 109.903 47.8311C110.063 47.4437 110.313 47.0859 110.655 46.7578C110.91 46.5254 111.214 46.3477 111.564 46.2246C111.915 46.1016 112.346 46.04 112.856 46.04C113.804 46.04 114.568 46.2861 115.146 46.7783C115.73 47.2659 116.021 47.9222 116.021 48.7471C116.021 49.3304 115.848 49.8226 115.502 50.2236C115.283 50.4743 115.055 50.6452 114.818 50.7363C114.996 50.7363 115.251 50.889 115.584 51.1943C116.081 51.6546 116.329 52.2835 116.329 53.0811C116.329 53.9196 116.037 54.6579 115.454 55.2959C114.875 55.9294 114.016 56.2461 112.877 56.2461C111.473 56.2461 110.498 55.7881 109.951 54.8721C109.664 54.3844 109.505 53.7464 109.473 52.958H111.387ZM71.3037 25.8672H72.4248V24.3428H71.3037V18.1494H69.1162L65.4727 24.165V25.8672H69.3965V28H71.3037V25.8672ZM69.3965 20.0635V24.3428H66.915L69.3965 20.0635Z" fill="white"/>
<path d="M68.4961 89.8623C68.4961 90.3955 68.6396 90.8307 68.9268 91.168C69.2139 91.5052 69.5785 91.6738 70.0205 91.6738C70.4535 91.6738 70.793 91.512 71.0391 91.1885C71.2897 90.8604 71.415 90.4365 71.415 89.917C71.415 89.3382 71.2738 88.8962 70.9912 88.5908C70.7087 88.2809 70.3623 88.126 69.9521 88.126C69.6195 88.126 69.3255 88.2262 69.0703 88.4268C68.6875 88.723 68.4961 89.2015 68.4961 89.8623ZM71.2373 85.583C71.2373 85.4235 71.1758 85.248 71.0527 85.0566C70.8431 84.7467 70.5264 84.5918 70.1025 84.5918C69.4691 84.5918 69.0179 84.9473 68.749 85.6582C68.6032 86.0501 68.5029 86.6289 68.4482 87.3945C68.6898 87.1074 68.9701 86.8978 69.2891 86.7656C69.6081 86.6335 69.9727 86.5674 70.3828 86.5674C71.2624 86.5674 71.9824 86.8659 72.543 87.4629C73.1081 88.0599 73.3906 88.8232 73.3906 89.7529C73.3906 90.6781 73.1149 91.4938 72.5635 92.2002C72.012 92.9066 71.1553 93.2598 69.9932 93.2598C68.7445 93.2598 67.8239 92.738 67.2314 91.6943C66.7712 90.8786 66.541 89.8258 66.541 88.5361C66.541 87.7796 66.5729 87.1644 66.6367 86.6904C66.7507 85.8473 66.9717 85.1455 67.2998 84.585C67.5824 84.1064 67.9515 83.7214 68.4072 83.4297C68.8675 83.138 69.4167 82.9922 70.0547 82.9922C70.9753 82.9922 71.709 83.2292 72.2559 83.7031C72.8027 84.1725 73.1104 84.7992 73.1787 85.583H71.2373Z" fill="white"/>
</svg>
