<svg width="153" height="104" viewBox="0 0 153 104" fill="none" xmlns="http://www.w3.org/2000/svg">
<path fill-rule="evenodd" clip-rule="evenodd" d="M116 8H117H139H140V9V37V38H139H118V43H133V59H118V73V74H117H29H28V73V59H13V43H45V59H30V72H72V59H57V43H89V59H74V72H116V59H101V43H116V37V31H101V15H116V9V8ZM118 36V31H133V15H118V10H138V36H118ZM69.541 56C69.5592 55.2891 69.7119 54.6396 69.999 54.0518C70.277 53.3909 70.9333 52.6914 71.9678 51.9531C72.8656 51.3105 73.4466 50.8503 73.7109 50.5723C74.1165 50.1393 74.3193 49.6654 74.3193 49.1504C74.3193 48.7311 74.2031 48.3825 73.9707 48.1045C73.7383 47.8265 73.4056 47.6875 72.9727 47.6875C72.3802 47.6875 71.9769 47.9085 71.7627 48.3506C71.6396 48.6058 71.5667 49.0114 71.5439 49.5674H69.6504C69.6823 48.7243 69.835 48.043 70.1084 47.5234C70.6279 46.5345 71.5508 46.04 72.877 46.04C73.9251 46.04 74.7591 46.3317 75.3789 46.915C75.9987 47.4938 76.3086 48.2617 76.3086 49.2188C76.3086 49.9525 76.0898 50.6042 75.6523 51.1738C75.3652 51.5521 74.8936 51.9736 74.2373 52.4385L73.458 52.9922C72.9704 53.3385 72.6354 53.5892 72.4531 53.7441C72.2754 53.8991 72.125 54.0791 72.002 54.2842H76.3291V56H69.541ZM26.0742 47.8379V49.1641H28.4053V56H30.4014V46.0879H28.7812C28.7812 46.1745 28.7562 46.3066 28.7061 46.4844C28.6195 46.7806 28.4919 47.0176 28.3232 47.1953C28.0771 47.4551 27.7581 47.6283 27.3662 47.7148C27.1201 47.7695 26.6895 47.8105 26.0742 47.8379ZM115.387 52.958C115.387 53.3545 115.451 53.6826 115.578 53.9424C115.815 54.4209 116.246 54.6602 116.87 54.6602C117.253 54.6602 117.586 54.5303 117.868 54.2705C118.155 54.0062 118.299 53.6279 118.299 53.1357C118.299 52.4841 118.035 52.0488 117.506 51.8301C117.205 51.707 116.731 51.6455 116.084 51.6455V50.251C116.717 50.2419 117.16 50.1803 117.41 50.0664C117.843 49.875 118.06 49.4876 118.06 48.9043C118.06 48.526 117.948 48.2184 117.725 47.9814C117.506 47.7445 117.196 47.626 116.795 47.626C116.335 47.626 115.995 47.7718 115.776 48.0635C115.562 48.3551 115.46 48.7448 115.469 49.2324H113.65C113.669 48.7402 113.753 48.2731 113.903 47.8311C114.063 47.4437 114.313 47.0859 114.655 46.7578C114.91 46.5254 115.214 46.3477 115.564 46.2246C115.915 46.1016 116.346 46.04 116.856 46.04C117.804 46.04 118.568 46.2861 119.146 46.7783C119.73 47.2659 120.021 47.9222 120.021 48.7471C120.021 49.3304 119.848 49.8226 119.502 50.2236C119.283 50.4743 119.055 50.6452 118.818 50.7363C118.996 50.7363 119.251 50.889 119.584 51.1943C120.081 51.6546 120.329 52.2835 120.329 53.0811C120.329 53.9196 120.037 54.6579 119.454 55.2959C118.875 55.9294 118.016 56.2461 116.877 56.2461C115.473 56.2461 114.498 55.7881 113.951 54.8721C113.664 54.3844 113.505 53.7464 113.473 52.958H115.387ZM119.304 25.8672H120.425V24.3428H119.304V18.1494H117.116L113.473 24.165V25.8672H117.396V28H119.304V25.8672ZM117.396 20.0635V24.3428H114.915L117.396 20.0635Z" fill="white"/>
<path d="M77.4863 84.7422C77.1947 85.0293 76.7891 85.542 76.2695 86.2803C75.75 87.014 75.3148 87.7728 74.9639 88.5566C74.6859 89.1719 74.4352 89.9238 74.2119 90.8125C73.9886 91.7012 73.877 92.4303 73.877 93H71.8535C71.9128 91.2227 72.4961 89.3747 73.6035 87.4561C74.319 86.2666 74.9183 85.4372 75.4014 84.9678H70.459L70.4863 83.2178H77.4863V84.7422Z" fill="white"/>
</svg>
