<svg width="197" height="104" viewBox="0 0 197 104" fill="none" xmlns="http://www.w3.org/2000/svg">
<path fill-rule="evenodd" clip-rule="evenodd" d="M162.5 36H161.5V37V43H146V59H161.5V65V72H119V59H134V43H102V59H117V72H75V59H90V43H58V59H73V72H31V59H46V43H14V59H29V73V74H30H74H118H162.5H163.5V73V66H184H185V65V37V36H184H162.5ZM163.5 59V64H183V38H163.5V43H178V59H163.5ZM70.541 56C70.5592 55.2891 70.7119 54.6396 70.999 54.0518C71.277 53.391 71.9333 52.6914 72.9678 51.9531C73.8656 51.3105 74.4466 50.8503 74.7109 50.5723C75.1165 50.1393 75.3193 49.6654 75.3193 49.1504C75.3193 48.7311 75.2031 48.3825 74.9707 48.1045C74.7383 47.8265 74.4056 47.6875 73.9727 47.6875C73.3802 47.6875 72.9769 47.9085 72.7627 48.3506C72.6396 48.6058 72.5667 49.0114 72.5439 49.5674H70.6504C70.6823 48.7243 70.835 48.043 71.1084 47.5234C71.6279 46.5345 72.5508 46.04 73.877 46.04C74.9251 46.04 75.7591 46.3317 76.3789 46.915C76.9987 47.4938 77.3086 48.2617 77.3086 49.2188C77.3086 49.9525 77.0898 50.6042 76.6523 51.1738C76.3652 51.5521 75.8936 51.9736 75.2373 52.4385L74.458 52.9922C73.9704 53.3385 73.6354 53.5892 73.4531 53.7441C73.2754 53.8991 73.125 54.0791 73.002 54.2842H77.3291V56H70.541ZM27.0742 47.8379V49.1641H29.4053V56H31.4014V46.0879H29.7812C29.7812 46.1745 29.7562 46.3066 29.7061 46.4844C29.6195 46.7806 29.4919 47.0176 29.3232 47.1953C29.0771 47.4551 28.7581 47.6283 28.3662 47.7148C28.1201 47.7695 27.6895 47.8105 27.0742 47.8379ZM116.387 52.958C116.387 53.3545 116.451 53.6826 116.578 53.9424C116.815 54.4209 117.246 54.6602 117.87 54.6602C118.253 54.6602 118.586 54.5303 118.868 54.2705C119.155 54.0062 119.299 53.6279 119.299 53.1357C119.299 52.484 119.035 52.0488 118.506 51.8301C118.205 51.707 117.731 51.6455 117.084 51.6455V50.251C117.717 50.2419 118.16 50.1803 118.41 50.0664C118.843 49.875 119.06 49.4876 119.06 48.9043C119.06 48.526 118.948 48.2184 118.725 47.9814C118.506 47.7445 118.196 47.626 117.795 47.626C117.335 47.626 116.995 47.7718 116.776 48.0635C116.562 48.3551 116.46 48.7448 116.469 49.2324H114.65C114.669 48.7402 114.753 48.2731 114.903 47.8311C115.063 47.4437 115.313 47.0859 115.655 46.7578C115.91 46.5254 116.214 46.3477 116.564 46.2246C116.915 46.1016 117.346 46.04 117.856 46.04C118.804 46.04 119.568 46.2861 120.146 46.7783C120.73 47.266 121.021 47.9222 121.021 48.7471C121.021 49.3304 120.848 49.8226 120.502 50.2236C120.283 50.4743 120.055 50.6452 119.818 50.7363C119.996 50.7363 120.251 50.889 120.584 51.1943C121.081 51.6546 121.329 52.2835 121.329 53.0811C121.329 53.9196 121.037 54.6579 120.454 55.2959C119.875 55.9294 119.016 56.2461 117.877 56.2461C116.473 56.2461 115.498 55.7881 114.951 54.8721C114.664 54.3844 114.505 53.7464 114.473 52.958H116.387ZM164.304 53.8672H165.425V52.3428H164.304V46.1494H162.116L158.473 52.165V53.8672H162.396V56H164.304V53.8672ZM162.396 48.0635V52.3428H159.915L162.396 48.0635Z" fill="white"/>
<path d="M94.4961 90.1221C94.4961 90.6097 94.6214 90.988 94.8721 91.2568C95.1273 91.5257 95.4782 91.6602 95.9248 91.6602C96.3714 91.6602 96.7201 91.5257 96.9707 91.2568C97.2259 90.988 97.3535 90.6097 97.3535 90.1221C97.3535 89.6162 97.2236 89.2334 96.9639 88.9736C96.7087 88.7093 96.3623 88.5771 95.9248 88.5771C95.4873 88.5771 95.1387 88.7093 94.8789 88.9736C94.6237 89.2334 94.4961 89.6162 94.4961 90.1221ZM92.4727 90.252C92.4727 89.696 92.598 89.1924 92.8486 88.7412C93.1038 88.29 93.4753 87.9505 93.9629 87.7227C93.4844 87.4036 93.1722 87.0596 93.0264 86.6904C92.8851 86.3167 92.8145 85.9681 92.8145 85.6445C92.8145 84.9245 93.0856 84.3115 93.6279 83.8057C94.1702 83.2952 94.9359 83.04 95.9248 83.04C96.9137 83.04 97.6794 83.2952 98.2217 83.8057C98.764 84.3115 99.0352 84.9245 99.0352 85.6445C99.0352 85.9681 98.9622 86.3167 98.8164 86.6904C98.6751 87.0596 98.3652 87.3809 97.8867 87.6543C98.3743 87.9277 98.7412 88.29 98.9873 88.7412C99.2334 89.1924 99.3564 89.696 99.3564 90.252C99.3564 91.0859 99.0465 91.7969 98.4268 92.3848C97.8115 92.9681 96.9502 93.2598 95.8428 93.2598C94.7354 93.2598 93.8968 92.9681 93.3271 92.3848C92.7575 91.7969 92.4727 91.0859 92.4727 90.252ZM94.6738 85.8633C94.6738 86.2233 94.7832 86.5173 95.002 86.7451C95.2253 86.973 95.5329 87.0869 95.9248 87.0869C96.3213 87.0869 96.6266 86.973 96.8408 86.7451C97.0596 86.5173 97.1689 86.2233 97.1689 85.8633C97.1689 85.4714 97.0596 85.166 96.8408 84.9473C96.6266 84.724 96.3213 84.6123 95.9248 84.6123C95.5329 84.6123 95.2253 84.724 95.002 84.9473C94.7832 85.166 94.6738 85.4714 94.6738 85.8633Z" fill="white"/>
</svg>
